{"title":"North Sea Texas (2011) DVD RIP Gay intrest","uid":9286884,"size":703604482,"categoryP":"video","categoryS":"movies","magnet":"?xt=urn:btih:fb78239477f3f2b43e1bc786916f3d51ac2fa34d&amp;dn=North+Sea+Texas+%282011%29+DVD+RIP+Gay+intrest&amp;tr=udp%3A%2F%2Ftracker.openbittorrent.com%3A80&amp;tr=udp%3A%2F%2Fopen.demonii.com%3A1337&amp;tr=udp%3A%2F%2Ftracker.coppersurfer.tk%3A6969&amp;tr=udp%3A%2F%2Fexodus.desync.com%3A6969","seeders":12,"leechers":4,"uploader":"sonicx33","files":-1,"time":1386034493,"description":" &lt;a href=&quot;http://www.imdb.com/title/tt1625150/&quot; rel=&quot;nofollow&quot; target=&quot;_NEW&quot;&gt;http://www.imdb.com/title/tt1625150/&lt;/a&gt;\n\n\n\nFormat                                   : MPEG-4\nFormat profile                           : Base Media / Version 2\nCodec ID                                 : mp42\nFile size                                : 667 MiB\nDuration                                 : 1h 34mn\nOverall bit rate mode                    : Variable\nOverall bit rate                         : 988 Kbps\nEncoded date                             : UTC 2013-11-30 23:51:52\nTagged date                              : UTC 2013-12-01 00:32:04\nWriting application                      : HandBrake 0.9.9 2013052900\n\nVideo\nID                                       : 1\nFormat                                   : AVC\nFormat/Info                              : Advanced Video Codec\nFormat profile                           : &lt;a class=&quot;__cf_email__&quot; href=&quot;/cdn-cgi/l/email-protection&quot; data-cfemail=&quot;1c517d75725c5029322e&quot;&gt;[email&amp;#160;protected]&lt;/a&gt;&lt;script cf-hash='f9e31' type=&quot;text/javascript&quot;&gt;\n/* &lt;![CDATA[ */!function(){try{var t=&quot;currentScript&quot;in document?document.currentScript:function(){for(var t=document.getElementsByTagName(&quot;script&quot;),e=t.length;e--;)if(t[e].getAttribute(&quot;cf-hash&quot;))return t[e]}();if(t&amp;&amp;t.previousSibling){var e,r,n,i,c=t.previousSibling,a=c.getAttribute(&quot;data-cfemail&quot;);if(a){for(e=&quot;&quot;,r=parseInt(a.substr(0,2),16),n=2;a.length-n;n+=2)i=parseInt(a.substr(n,2),16)^r,e+=String.fromCharCode(i);e=document.createTextNode(e),c.parentNode.replaceChild(e,c)}}}catch(u){}}();/* ]]&gt; */&lt;/script&gt;\nFormat settings, CABAC                   : Yes\nFormat settings, ReFrames                : 4 frames\nCodec ID                                 : avc1\nCodec ID/Info                            : Advanced Video Coding\nDuration                                 : 1h 34mn\nBit rate                                 : 822 Kbps\nWidth                                    : 720 pixels\nHeight                                   : 436 pixels\nDisplay aspect ratio                     : 2.35:1\nOriginal display aspect ratio            : 2.35:1\nFrame rate mode                          : Constant\nFrame rate                               : 25.000 fps\nColor space                              : YUV\nChroma subsampling                       : 4:2:0\nBit depth                                : 8 bits\nScan type                                : Progressive\nBits/(Pixel*Frame)                       : 0.105\nStream size                              : 555 MiB (83%)\nWriting library                          : x264 core 130 r2273 b3065e6\nEncoding settings                        : cabac=1 / ref=3 / deblock=1:0:0 / \nEncoded date                             : UTC 2013-11-30 23:51:52\nTagged date                              : UTC 2013-12-01 00:32:04\nColor primaries                          : BT.601 PAL\nTransfer characteristics                 : BT.709\nMatrix coefficients                      : BT.601\n\nAudio\nID                                       : 2\nFormat                                   : AAC\nFormat/Info                              : Advanced Audio Codec\nFormat profile                           : LC\nCodec ID                                 : 40\nDuration                                 : 1h 34mn\nBit rate mode                            : Variable\nBit rate                                 : 160 Kbps\nMaximum bit rate                         : 343 Kbps\nChannel(s)                               : 2 channels\nChannel positions                        : Front: L R\nSampling rate                            : 48.0 KHz\nCompression mode                         : Lossy\nStream size                              : 108 MiB (16%)\nLanguage                                 : Dutch\nEncoded date                             : UTC 2013-11-30 23:51:52\nTagged date                              : UTC 2013-12-01 00:32\n\n\nStoryline\n\nPim, the emotionally abandoned and affection-starved young gay son of a small seaside town's resident floozy, grows up dreaming intensely of a loving father who will someday come for him, but never does. Frequently home alone, Pim often spends time at a neighbor's house where another single mom and her two teenage children accept him matter-of-factly. As Pim is about to turn 15, he and neighbor boy Gino become each other's friend-with-benefits, entering a period of sexual awakening together. Life, however, is all about change, and while Gino (a couple years older) is ready to move on and move out, Pim is not, leaving Pim behind to carry on with his continuing crush for Gino (while Gino's sister Sabrina develops an unrequited crush for Pim)","torrent":{"xt":"urn:btih:fb78239477f3f2b43e1bc786916f3d51ac2fa34d","amp;dn":"North+Sea+Texas+%282011%29+DVD+RIP+Gay+intrest","amp;tr":["udp%3A%2F%2Ftracker.openbittorrent.com%3A80","udp%3A%2F%2Fopen.demonii.com%3A1337","udp%3A%2F%2Ftracker.coppersurfer.tk%3A6969","udp%3A%2F%2Fexodus.desync.com%3A6969"],"infoHash":"fb78239477f3f2b43e1bc786916f3d51ac2fa34d","infoHashBuffer":{"type":"Buffer","data":[251,120,35,148,119,243,242,180,62,27,199,134,145,111,61,81,172,47,163,77]},"announce":[],"urlList":[]}}